<?xml version="1.0" encoding="UTF-8" standalone="no"?><!DOCTYPE svg PUBLIC "-//W3C//DTD SVG 1.1//EN" "http://www.w3.org/Graphics/SVG/1.1/DTD/svg11.dtd"><svg width="100%" height="100%" viewBox="0 0 1105 309" version="1.1" xmlns="http://www.w3.org/2000/svg" xmlns:xlink="http://www.w3.org/1999/xlink" xml:space="preserve" xmlns:serif="http://www.serif.com/" style="fill-rule:evenodd;clip-rule:evenodd;stroke-miterlimit:1.5;"><g id="Logo-4" serif:id="Logo 4"><path d="M13.145,230.75l80.374,-49.437l147.36,-0.056" style="fill:none;stroke:url(#_Linear1);stroke-width:14.58px;"/><path d="M928.297,181.257l91.799,0l71.289,-136.661" style="fill:none;stroke:url(#_Linear2);stroke-width:14.58px;"/><path d="M240.879,181.257l688.029,0" style="fill:none;stroke:#a3f04b;stroke-width:14.58px;"/><g><path d="M286.925,100.868c-0,8.379 -3.142,14.954 -9.427,19.726c-6.284,4.771 -15.362,7.157 -27.233,7.157c-9.543,0 -17.369,-1.426 -23.479,-4.277c-6.11,-2.851 -9.165,-6.837 -9.165,-11.958c0,-2.211 0.524,-4.218 1.571,-6.022c1.048,-1.804 2.328,-3.23 3.841,-4.277c3.375,1.978 7.215,3.782 11.521,5.411c4.306,1.63 9.252,2.444 14.839,2.444c8.961,0 13.441,-2.676 13.441,-8.03c0,-2.211 -0.814,-3.986 -2.444,-5.324c-1.629,-1.339 -4.189,-2.357 -7.681,-3.055l-8.379,-2.095c-8.961,-1.862 -15.653,-4.83 -20.075,-8.903c-4.423,-4.073 -6.634,-9.601 -6.634,-16.584c0,-7.914 3.201,-14.256 9.601,-19.028c6.401,-4.771 15.071,-7.157 26.011,-7.157c5.703,-0 10.794,0.553 15.275,1.658c4.48,1.106 8.03,2.764 10.648,4.975c2.619,2.212 3.928,4.888 3.928,8.031c0,2.211 -0.465,4.16 -1.396,5.848c-0.931,1.687 -2.095,3.055 -3.492,4.102c-1.28,-0.815 -3.2,-1.688 -5.76,-2.619c-2.561,-0.931 -5.383,-1.716 -8.467,-2.356c-3.084,-0.64 -6.023,-0.96 -8.816,-0.96c-4.189,-0 -7.535,0.64 -10.037,1.92c-2.503,1.28 -3.754,3.142 -3.754,5.586c0,1.629 0.699,3.055 2.095,4.277c1.397,1.222 3.841,2.24 7.332,3.055l7.681,1.746c10.125,2.327 17.399,5.644 21.821,9.95c4.423,4.306 6.634,9.892 6.634,16.759Z" style="fill:#177784;fill-rule:nonzero;"/><path d="M302.112,78.872l24.265,-0l0,19.377c0,3.491 1.077,5.994 3.23,7.507c2.153,1.512 5.15,2.269 8.99,2.269c1.862,-0 3.811,-0.204 5.848,-0.611c2.037,-0.407 3.811,-0.902 5.324,-1.484c0.931,0.931 1.746,2.124 2.444,3.579c0.699,1.454 1.048,3.171 1.048,5.149c-0,3.608 -1.6,6.634 -4.801,9.078c-3.2,2.444 -8.466,3.666 -15.798,3.666c-9.543,-0 -17.021,-2.153 -22.432,-6.459c-5.412,-4.306 -8.118,-11.289 -8.118,-20.948l0,-21.123Zm24.265,-16.584l0,-18.853l24.789,-0c0.582,0.931 1.135,2.211 1.658,3.84c0.524,1.629 0.786,3.433 0.786,5.412c-0,3.258 -0.757,5.673 -2.269,7.244c-1.513,1.571 -3.55,2.357 -6.11,2.357l-18.854,-0Zm0,16.584l-24.265,-0l0,-58.306c1.048,-0.349 2.59,-0.698 4.626,-1.047c2.037,-0.349 4.161,-0.524 6.372,-0.524c4.539,-0 7.885,0.815 10.038,2.444c2.153,1.629 3.229,4.597 3.229,8.903l0,48.53Z" style="fill:#177784;fill-rule:nonzero;"/><path d="M378.922,95.107l7.61,-18.078l36.032,-5.489c-0.349,-3.724 -1.891,-7.041 -4.626,-9.95c-2.734,-2.91 -6.72,-4.365 -11.958,-4.365c-5.586,0 -10.183,1.863 -13.79,5.587c-3.608,3.724 -5.528,9.077 -5.761,16.06l0.698,10.998c1.047,6.75 3.841,11.638 8.379,14.664c4.539,3.025 10.067,4.538 16.584,4.538c4.888,0 9.456,-0.698 13.704,-2.095c4.248,-1.396 7.652,-2.909 10.212,-4.538c1.63,1.047 2.997,2.444 4.103,4.189c1.105,1.746 1.658,3.608 1.658,5.587c0,3.258 -1.367,6.051 -4.102,8.379c-2.735,2.327 -6.43,4.073 -11.085,5.237c-4.656,1.164 -10.009,1.746 -16.061,1.746c-9.077,-0 -17.137,-1.688 -24.177,-5.063c-7.041,-3.375 -12.569,-8.437 -16.584,-15.187c-4.016,-6.75 -6.023,-15.13 -6.023,-25.138c-0,-7.216 1.164,-13.558 3.491,-19.028c2.328,-5.47 5.441,-9.98 9.34,-13.529c3.898,-3.55 8.379,-6.197 13.441,-7.943c5.063,-1.746 10.329,-2.619 15.799,-2.619c7.914,0 14.809,1.571 20.686,4.714c5.877,3.142 10.503,7.448 13.878,12.918c3.375,5.47 5.063,11.754 5.063,18.853c-0,3.492 -0.931,6.139 -2.793,7.943c-1.862,1.804 -4.423,2.939 -7.681,3.404l-56.037,8.205Z" style="fill:#177784;fill-rule:nonzero;"/><path d="M502.342,127.402c-4.422,-0 -8.437,-0.553 -12.045,-1.658c-3.608,-1.106 -6.634,-2.357 -9.078,-3.754l0,-20.773c2.095,1.745 4.568,3.317 7.42,4.713c2.851,1.397 6.255,2.095 10.212,2.095c6.517,-0 11.638,-2.066 15.362,-6.197c3.724,-4.132 5.586,-10.445 5.586,-18.941c0,-5.935 -0.844,-10.678 -2.531,-14.227c-1.688,-3.55 -4.044,-6.168 -7.07,-7.856c-3.026,-1.687 -6.576,-2.531 -10.649,-2.531c-2.909,-0 -5.47,0.349 -7.681,1.047c-2.211,0.699 -4.131,1.513 -5.761,2.444l0,47.657l-9.155,0.604l-15.11,-0.778l0,-50.45c0,-2.91 0.582,-5.296 1.746,-7.158c1.164,-1.862 2.91,-3.549 5.237,-5.062c3.491,-2.095 7.856,-3.87 13.093,-5.325c5.237,-1.454 11.114,-2.182 17.631,-2.182c8.729,0 16.497,1.513 23.305,4.539c6.808,3.026 12.162,7.768 16.06,14.227c3.899,6.459 5.848,14.81 5.848,25.051c0,9.776 -1.833,17.951 -5.499,24.527c-3.665,6.575 -8.699,11.551 -15.1,14.926c-6.401,3.375 -13.674,5.062 -21.821,5.062Zm-27.232,30.2c-4.539,0 -7.885,-0.843 -10.038,-2.531c-2.153,-1.687 -3.23,-4.626 -3.23,-8.816l0,-37.008l24.265,0.174l0,46.785c-1.047,0.233 -2.56,0.524 -4.538,0.873c-1.979,0.349 -4.132,0.523 -6.459,0.523Z" style="fill:#177784;fill-rule:nonzero;"/><path d="M616.859,73.111c-1.396,6.052 -3.055,12.22 -4.975,18.504c-1.92,6.285 -3.753,12.191 -5.499,17.719c-1.746,5.528 -3.2,9.98 -4.364,13.355c-1.28,1.163 -3.055,2.094 -5.324,2.793c-2.27,0.698 -5.034,1.047 -8.292,1.047c-3.725,0 -7.012,-0.553 -9.864,-1.658c-2.851,-1.106 -4.742,-2.706 -5.673,-4.801c-1.164,-2.327 -2.415,-5.644 -3.753,-9.95c-1.339,-4.306 -2.706,-9.252 -4.103,-14.839c-1.396,-5.586 -2.793,-11.405 -4.189,-17.456c-1.397,-6.052 -2.677,-11.9 -3.841,-17.545c-1.164,-5.644 -2.153,-10.736 -2.967,-15.274c1.396,-1.397 3.2,-2.59 5.411,-3.579c2.211,-0.989 4.714,-1.484 7.507,-1.484c3.375,0 6.139,0.786 8.292,2.357c2.153,1.571 3.462,4.277 3.927,8.117c1.164,7.449 2.241,14.14 3.23,20.076c0.989,5.935 1.891,11.114 2.706,15.536c0.814,4.423 1.542,8.118 2.182,11.085c0.64,2.968 1.135,5.208 1.484,6.721l0.698,0c0.698,-2.676 1.804,-6.837 3.317,-12.481c1.513,-5.645 3.317,-12.104 5.411,-19.377c2.095,-7.274 4.132,-14.635 6.11,-22.083c1.862,-1.048 3.783,-1.862 5.761,-2.444c1.978,-0.582 4.306,-0.873 6.983,-0.873c3.375,-0 6.255,0.553 8.641,1.658c2.386,1.106 3.928,2.822 4.626,5.15c2.211,7.215 4.277,14.198 6.197,20.948c1.92,6.75 3.579,12.715 4.975,17.893c1.397,5.179 2.386,9.107 2.968,11.784l0.873,-0c1.746,-9.543 3.578,-19.523 5.499,-29.939c1.92,-10.416 3.52,-20.861 4.8,-31.335c3.375,-1.862 7.041,-2.793 10.998,-2.793c3.375,0 6.139,0.728 8.292,2.182c2.153,1.455 3.23,3.928 3.23,7.419c-0,1.63 -0.32,4.277 -0.96,7.943c-0.64,3.666 -1.484,7.856 -2.532,12.569c-1.047,4.714 -2.24,9.718 -3.578,15.013c-1.339,5.295 -2.677,10.387 -4.015,15.275c-1.339,4.888 -2.619,9.281 -3.841,13.18c-1.222,3.898 -2.298,6.953 -3.229,9.165c-1.164,1.047 -3.114,1.949 -5.848,2.705c-2.735,0.757 -5.674,1.135 -8.816,1.135c-8.03,0 -12.744,-2.036 -14.14,-6.11c-1.164,-3.258 -2.619,-7.448 -4.364,-12.569c-1.746,-5.12 -3.463,-10.736 -5.15,-16.846c-1.688,-6.109 -3.288,-12.074 -4.801,-17.893Z" style="fill:#177784;fill-rule:nonzero;"/><path d="M689.48,17.249c-0,-3.724 1.28,-6.866 3.84,-9.426c2.561,-2.561 5.877,-3.841 9.951,-3.841c4.073,0 7.39,1.28 9.95,3.841c2.56,2.56 3.84,5.702 3.84,9.426c0,3.724 -1.28,6.896 -3.84,9.514c-2.56,2.619 -5.877,3.928 -9.95,3.928c-4.074,0 -7.39,-1.309 -9.951,-3.928c-2.56,-2.618 -3.84,-5.79 -3.84,-9.514Zm1.571,61.623l24.439,-0l0,45.911c-1.047,0.233 -2.56,0.524 -4.538,0.873c-1.979,0.349 -4.132,0.524 -6.459,0.524c-4.656,0 -8.06,-0.815 -10.213,-2.444c-2.153,-1.629 -3.229,-4.597 -3.229,-8.903l-0,-35.961Zm24.439,-0l-24.439,-0l-0,-36.485c1.047,-0.233 2.56,-0.524 4.539,-0.873c1.978,-0.349 4.131,-0.523 6.459,-0.523c4.655,-0 8.059,0.814 10.212,2.444c2.153,1.629 3.229,4.655 3.229,9.077l0,26.36Z" style="fill:url(#_Linear3);fill-rule:nonzero;"/><path d="M802.425,100.868c0,8.379 -3.142,14.954 -9.426,19.726c-6.285,4.771 -15.362,7.157 -27.233,7.157c-9.543,0 -17.369,-1.426 -23.479,-4.277c-6.11,-2.851 -9.165,-6.837 -9.165,-11.958c-0,-2.211 0.523,-4.218 1.571,-6.022c1.047,-1.804 2.327,-3.23 3.84,-4.277c3.375,1.978 7.216,3.782 11.522,5.411c4.306,1.63 9.252,2.444 14.838,2.444c8.961,0 13.442,-2.676 13.442,-8.03c0,-2.211 -0.815,-3.986 -2.444,-5.324c-1.629,-1.339 -4.19,-2.357 -7.681,-3.055l-8.379,-2.095c-8.961,-1.862 -15.653,-4.83 -20.076,-8.903c-4.422,-4.073 -6.633,-9.601 -6.633,-16.584c-0,-7.914 3.2,-14.256 9.601,-19.028c6.401,-4.771 15.071,-7.157 26.011,-7.157c5.702,-0 10.794,0.553 15.274,1.658c4.481,1.106 8.031,2.764 10.649,4.975c2.619,2.212 3.928,4.888 3.928,8.031c-0,2.211 -0.466,4.16 -1.397,5.848c-0.931,1.687 -2.094,3.055 -3.491,4.102c-1.28,-0.815 -3.2,-1.688 -5.761,-2.619c-2.56,-0.931 -5.382,-1.716 -8.466,-2.356c-3.084,-0.64 -6.023,-0.96 -8.816,-0.96c-4.19,-0 -7.536,0.64 -10.038,1.92c-2.502,1.28 -3.753,3.142 -3.753,5.586c0,1.629 0.698,3.055 2.095,4.277c1.396,1.222 3.84,2.24 7.332,3.055l7.681,1.746c10.125,2.327 17.398,5.644 21.821,9.95c4.422,4.306 6.633,9.892 6.633,16.759Z" style="fill:#177784;fill-rule:nonzero;"/><path d="M834.375,94.391l2.719,-17.362l36.032,-5.489c-0.349,-3.724 -1.891,-7.041 -4.626,-9.95c-2.735,-2.91 -6.721,-4.365 -11.958,-4.365c-5.586,0 -10.183,1.863 -13.791,5.587c-3.608,3.724 -5.528,9.077 -5.761,16.06l0.698,10.998c1.048,6.75 3.841,11.638 8.38,14.664c4.538,3.025 10.066,4.538 16.584,4.538c4.888,0 9.455,-0.698 13.703,-2.095c4.248,-1.396 7.652,-2.909 10.212,-4.538c1.63,1.047 2.997,2.444 4.103,4.189c1.105,1.746 1.658,3.608 1.658,5.587c0,3.258 -1.367,6.051 -4.102,8.379c-2.735,2.327 -6.43,4.073 -11.085,5.237c-4.655,1.164 -10.009,1.746 -16.061,1.746c-9.077,-0 -17.136,-1.688 -24.177,-5.063c-7.041,-3.375 -12.569,-8.437 -16.584,-15.187c-4.015,-6.75 -6.023,-15.13 -6.023,-25.138c0,-7.216 1.164,-13.558 3.491,-19.028c2.328,-5.47 5.441,-9.98 9.34,-13.529c3.899,-3.55 8.379,-6.197 13.442,-7.943c5.062,-1.746 10.328,-2.619 15.798,-2.619c7.914,0 14.809,1.571 20.686,4.714c5.878,3.142 10.504,7.448 13.879,12.918c3.375,5.47 5.062,11.754 5.062,18.853c0,3.492 -0.931,6.139 -2.793,7.943c-1.862,1.804 -4.422,2.939 -7.681,3.404l-51.145,7.489Z" style="fill:#177784;fill-rule:nonzero;"/></g><g><path d="M286.925,100.868c-0,8.379 -3.142,14.954 -9.427,19.726c-6.284,4.771 -15.362,7.157 -27.233,7.157c-9.543,0 -17.369,-1.426 -23.479,-4.277c-6.11,-2.851 -9.165,-6.837 -9.165,-11.958c0,-2.211 0.524,-4.218 1.571,-6.022c1.048,-1.804 2.328,-3.23 3.841,-4.277c3.375,1.978 7.215,3.782 11.521,5.411c4.306,1.63 9.252,2.444 14.839,2.444c8.961,0 13.441,-2.676 13.441,-8.03c0,-2.211 -0.814,-3.986 -2.444,-5.324c-1.629,-1.339 -4.189,-2.357 -7.681,-3.055l-8.379,-2.095c-8.961,-1.862 -15.653,-4.83 -20.075,-8.903c-4.423,-4.073 -6.634,-9.601 -6.634,-16.584c0,-7.914 3.201,-14.256 9.601,-19.028c6.401,-4.771 15.071,-7.157 26.011,-7.157c5.703,-0 10.794,0.553 15.275,1.658c4.48,1.106 8.03,2.764 10.648,4.975c2.619,2.212 3.928,4.888 3.928,8.031c0,2.211 -0.465,4.16 -1.396,5.848c-0.931,1.687 -2.095,3.055 -3.492,4.102c-1.28,-0.815 -3.2,-1.688 -5.76,-2.619c-2.561,-0.931 -5.383,-1.716 -8.467,-2.356c-3.084,-0.64 -6.023,-0.96 -8.816,-0.96c-4.189,-0 -7.535,0.64 -10.037,1.92c-2.503,1.28 -3.754,3.142 -3.754,5.586c0,1.629 0.699,3.055 2.095,4.277c1.397,1.222 3.841,2.24 7.332,3.055l7.681,1.746c10.125,2.327 17.399,5.644 21.821,9.95c4.423,4.306 6.634,9.892 6.634,16.759Z" style="fill:#177784;fill-rule:nonzero;"/><path d="M302.112,78.872l24.265,-0l0,19.377c0,3.491 1.077,5.994 3.23,7.507c2.153,1.512 5.15,2.269 8.99,2.269c1.862,-0 3.811,-0.204 5.848,-0.611c2.037,-0.407 3.811,-0.902 5.324,-1.484c0.931,0.931 1.746,2.124 2.444,3.579c0.699,1.454 1.048,3.171 1.048,5.149c-0,3.608 -1.6,6.634 -4.801,9.078c-3.2,2.444 -8.466,3.666 -15.798,3.666c-9.543,-0 -17.021,-2.153 -22.432,-6.459c-5.412,-4.306 -8.118,-11.289 -8.118,-20.948l0,-21.123Zm24.265,-16.584l0,-18.853l24.789,-0c0.582,0.931 1.135,2.211 1.658,3.84c0.524,1.629 0.786,3.433 0.786,5.412c-0,3.258 -0.757,5.673 -2.269,7.244c-1.513,1.571 -3.55,2.357 -6.11,2.357l-18.854,-0Zm0,16.584l-24.265,-0l0,-58.306c1.048,-0.349 2.59,-0.698 4.626,-1.047c2.037,-0.349 4.161,-0.524 6.372,-0.524c4.539,-0 7.885,0.815 10.038,2.444c2.153,1.629 3.229,4.597 3.229,8.903l0,48.53Z" style="fill:#177784;fill-rule:nonzero;"/><path d="M378.922,95.107l7.61,-18.078l36.032,-5.489c-0.349,-3.724 -1.891,-7.041 -4.626,-9.95c-2.734,-2.91 -6.72,-4.365 -11.958,-4.365c-5.586,0 -10.183,1.863 -13.79,5.587c-3.608,3.724 -5.528,9.077 -5.761,16.06l0.698,10.998c1.047,6.75 3.841,11.638 8.379,14.664c4.539,3.025 10.067,4.538 16.584,4.538c4.888,0 9.456,-0.698 13.704,-2.095c4.248,-1.396 7.652,-2.909 10.212,-4.538c1.63,1.047 2.997,2.444 4.103,4.189c1.105,1.746 1.658,3.608 1.658,5.587c0,3.258 -1.367,6.051 -4.102,8.379c-2.735,2.327 -6.43,4.073 -11.085,5.237c-4.656,1.164 -10.009,1.746 -16.061,1.746c-9.077,-0 -17.137,-1.688 -24.177,-5.063c-7.041,-3.375 -12.569,-8.437 -16.584,-15.187c-4.016,-6.75 -6.023,-15.13 -6.023,-25.138c-0,-7.216 1.164,-13.558 3.491,-19.028c2.328,-5.47 5.441,-9.98 9.34,-13.529c3.898,-3.55 8.379,-6.197 13.441,-7.943c5.063,-1.746 10.329,-2.619 15.799,-2.619c7.914,0 14.809,1.571 20.686,4.714c5.877,3.142 10.503,7.448 13.878,12.918c3.375,5.47 5.063,11.754 5.063,18.853c-0,3.492 -0.931,6.139 -2.793,7.943c-1.862,1.804 -4.423,2.939 -7.681,3.404l-56.037,8.205Z" style="fill:#177784;fill-rule:nonzero;"/><path d="M502.342,127.402c-4.422,-0 -8.437,-0.553 -12.045,-1.658c-3.608,-1.106 -6.634,-2.357 -9.078,-3.754l0,-20.773c2.095,1.745 4.568,3.317 7.42,4.713c2.851,1.397 6.255,2.095 10.212,2.095c6.517,-0 11.638,-2.066 15.362,-6.197c3.724,-4.132 5.586,-10.445 5.586,-18.941c0,-5.935 -0.844,-10.678 -2.531,-14.227c-1.688,-3.55 -4.044,-6.168 -7.07,-7.856c-3.026,-1.687 -6.576,-2.531 -10.649,-2.531c-2.909,-0 -5.47,0.349 -7.681,1.047c-2.211,0.699 -4.131,1.513 -5.761,2.444l0,47.657l-9.155,0.604l-15.11,-0.778l0,-50.45c0,-2.91 0.582,-5.296 1.746,-7.158c1.164,-1.862 2.91,-3.549 5.237,-5.062c3.491,-2.095 7.856,-3.87 13.093,-5.325c5.237,-1.454 11.114,-2.182 17.631,-2.182c8.729,0 16.497,1.513 23.305,4.539c6.808,3.026 12.162,7.768 16.06,14.227c3.899,6.459 5.848,14.81 5.848,25.051c0,9.776 -1.833,17.951 -5.499,24.527c-3.665,6.575 -8.699,11.551 -15.1,14.926c-6.401,3.375 -13.674,5.062 -21.821,5.062Zm-27.232,30.2c-4.539,0 -7.885,-0.843 -10.038,-2.531c-2.153,-1.687 -3.23,-4.626 -3.23,-8.816l0,-37.008l24.265,0.174l0,46.785c-1.047,0.233 -2.56,0.524 -4.538,0.873c-1.979,0.349 -4.132,0.523 -6.459,0.523Z" style="fill:#177784;fill-rule:nonzero;"/><path d="M616.859,73.111c-1.396,6.052 -3.055,12.22 -4.975,18.504c-1.92,6.285 -3.753,12.191 -5.499,17.719c-1.746,5.528 -3.2,9.98 -4.364,13.355c-1.28,1.163 -3.055,2.094 -5.324,2.793c-2.27,0.698 -5.034,1.047 -8.292,1.047c-3.725,0 -7.012,-0.553 -9.864,-1.658c-2.851,-1.106 -4.742,-2.706 -5.673,-4.801c-1.164,-2.327 -2.415,-5.644 -3.753,-9.95c-1.339,-4.306 -2.706,-9.252 -4.103,-14.839c-1.396,-5.586 -2.793,-11.405 -4.189,-17.456c-1.397,-6.052 -2.677,-11.9 -3.841,-17.545c-1.164,-5.644 -2.153,-10.736 -2.967,-15.274c1.396,-1.397 3.2,-2.59 5.411,-3.579c2.211,-0.989 4.714,-1.484 7.507,-1.484c3.375,0 6.139,0.786 8.292,2.357c2.153,1.571 3.462,4.277 3.927,8.117c1.164,7.449 2.241,14.14 3.23,20.076c0.989,5.935 1.891,11.114 2.706,15.536c0.814,4.423 1.542,8.118 2.182,11.085c0.64,2.968 1.135,5.208 1.484,6.721l0.698,0c0.698,-2.676 1.804,-6.837 3.317,-12.481c1.513,-5.645 3.317,-12.104 5.411,-19.377c2.095,-7.274 4.132,-14.635 6.11,-22.083c1.862,-1.048 3.783,-1.862 5.761,-2.444c1.978,-0.582 4.306,-0.873 6.983,-0.873c3.375,-0 6.255,0.553 8.641,1.658c2.386,1.106 3.928,2.822 4.626,5.15c2.211,7.215 4.277,14.198 6.197,20.948c1.92,6.75 3.579,12.715 4.975,17.893c1.397,5.179 2.386,9.107 2.968,11.784l0.873,-0c1.746,-9.543 3.578,-19.523 5.499,-29.939c1.92,-10.416 3.52,-20.861 4.8,-31.335c3.375,-1.862 7.041,-2.793 10.998,-2.793c3.375,0 6.139,0.728 8.292,2.182c2.153,1.455 3.23,3.928 3.23,7.419c-0,1.63 -0.32,4.277 -0.96,7.943c-0.64,3.666 -1.484,7.856 -2.532,12.569c-1.047,4.714 -2.24,9.718 -3.578,15.013c-1.339,5.295 -2.677,10.387 -4.015,15.275c-1.339,4.888 -2.619,9.281 -3.841,13.18c-1.222,3.898 -2.298,6.953 -3.229,9.165c-1.164,1.047 -3.114,1.949 -5.848,2.705c-2.735,0.757 -5.674,1.135 -8.816,1.135c-8.03,0 -12.744,-2.036 -14.14,-6.11c-1.164,-3.258 -2.619,-7.448 -4.364,-12.569c-1.746,-5.12 -3.463,-10.736 -5.15,-16.846c-1.688,-6.109 -3.288,-12.074 -4.801,-17.893Z" style="fill:#177784;fill-rule:nonzero;"/><path d="M689.48,17.249c-0,-3.724 1.28,-6.866 3.84,-9.426c2.561,-2.561 5.877,-3.841 9.951,-3.841c4.073,0 7.39,1.28 9.95,3.841c2.56,2.56 3.84,5.702 3.84,9.426c0,3.724 -1.28,6.896 -3.84,9.514c-2.56,2.619 -5.877,3.928 -9.95,3.928c-4.074,0 -7.39,-1.309 -9.951,-3.928c-2.56,-2.618 -3.84,-5.79 -3.84,-9.514Zm1.571,61.623l24.439,-0l0,45.911c-1.047,0.233 -2.56,0.524 -4.538,0.873c-1.979,0.349 -4.132,0.524 -6.459,0.524c-4.656,0 -8.06,-0.815 -10.213,-2.444c-2.153,-1.629 -3.229,-4.597 -3.229,-8.903l-0,-35.961Zm24.439,-0l-24.439,-0l-0,-36.485c1.047,-0.233 2.56,-0.524 4.539,-0.873c1.978,-0.349 4.131,-0.523 6.459,-0.523c4.655,-0 8.059,0.814 10.212,2.444c2.153,1.629 3.229,4.655 3.229,9.077l0,26.36Z" style="fill:url(#_Linear4);fill-rule:nonzero;"/><path d="M802.425,100.868c0,8.379 -3.142,14.954 -9.426,19.726c-6.285,4.771 -15.362,7.157 -27.233,7.157c-9.543,0 -17.369,-1.426 -23.479,-4.277c-6.11,-2.851 -9.165,-6.837 -9.165,-11.958c-0,-2.211 0.523,-4.218 1.571,-6.022c1.047,-1.804 2.327,-3.23 3.84,-4.277c3.375,1.978 7.216,3.782 11.522,5.411c4.306,1.63 9.252,2.444 14.838,2.444c8.961,0 13.442,-2.676 13.442,-8.03c0,-2.211 -0.815,-3.986 -2.444,-5.324c-1.629,-1.339 -4.19,-2.357 -7.681,-3.055l-8.379,-2.095c-8.961,-1.862 -15.653,-4.83 -20.076,-8.903c-4.422,-4.073 -6.633,-9.601 -6.633,-16.584c-0,-7.914 3.2,-14.256 9.601,-19.028c6.401,-4.771 15.071,-7.157 26.011,-7.157c5.702,-0 10.794,0.553 15.274,1.658c4.481,1.106 8.031,2.764 10.649,4.975c2.619,2.212 3.928,4.888 3.928,8.031c-0,2.211 -0.466,4.16 -1.397,5.848c-0.931,1.687 -2.094,3.055 -3.491,4.102c-1.28,-0.815 -3.2,-1.688 -5.761,-2.619c-2.56,-0.931 -5.382,-1.716 -8.466,-2.356c-3.084,-0.64 -6.023,-0.96 -8.816,-0.96c-4.19,-0 -7.536,0.64 -10.038,1.92c-2.502,1.28 -3.753,3.142 -3.753,5.586c0,1.629 0.698,3.055 2.095,4.277c1.396,1.222 3.84,2.24 7.332,3.055l7.681,1.746c10.125,2.327 17.398,5.644 21.821,9.95c4.422,4.306 6.633,9.892 6.633,16.759Z" style="fill:#177784;fill-rule:nonzero;"/><path d="M834.375,94.391l2.719,-17.362l36.032,-5.489c-0.349,-3.724 -1.891,-7.041 -4.626,-9.95c-2.735,-2.91 -6.721,-4.365 -11.958,-4.365c-5.586,0 -10.183,1.863 -13.791,5.587c-3.608,3.724 -5.528,9.077 -5.761,16.06l0.698,10.998c1.048,6.75 3.841,11.638 8.38,14.664c4.538,3.025 10.066,4.538 16.584,4.538c4.888,0 9.455,-0.698 13.703,-2.095c4.248,-1.396 7.652,-2.909 10.212,-4.538c1.63,1.047 2.997,2.444 4.103,4.189c1.105,1.746 1.658,3.608 1.658,5.587c0,3.258 -1.367,6.051 -4.102,8.379c-2.735,2.327 -6.43,4.073 -11.085,5.237c-4.655,1.164 -10.009,1.746 -16.061,1.746c-9.077,-0 -17.136,-1.688 -24.177,-5.063c-7.041,-3.375 -12.569,-8.437 -16.584,-15.187c-4.015,-6.75 -6.023,-15.13 -6.023,-25.138c0,-7.216 1.164,-13.558 3.491,-19.028c2.328,-5.47 5.441,-9.98 9.34,-13.529c3.899,-3.55 8.379,-6.197 13.442,-7.943c5.062,-1.746 10.328,-2.619 15.798,-2.619c7.914,0 14.809,1.571 20.686,4.714c5.878,3.142 10.504,7.448 13.879,12.918c3.375,5.47 5.062,11.754 5.062,18.853c0,3.492 -0.931,6.139 -2.793,7.943c-1.862,1.804 -4.422,2.939 -7.681,3.404l-51.145,7.489Z" style="fill:#177784;fill-rule:nonzero;"/></g></g><g id="tennis-ball" serif:id="tennis ball"><circle cx="702.969" cy="16.324" r="15.713" style="fill:#a3f04b;"/><path d="M715.65,5.714c-1.088,-1.225 -2.041,-2.041 -2.041,-2.041c-2.856,-2.313 -6.393,-3.673 -10.338,-3.673c-8.979,-0 -16.325,7.346 -16.325,16.324c0,8.979 7.346,16.325 16.325,16.325c8.978,-0 16.324,-7.346 16.324,-16.325c-0,-4.081 -1.496,-7.754 -3.945,-10.61Zm-14.692,-2.721c-0,0.136 -0.136,0.272 -0.136,0.408c-2.721,5.441 -4.897,8.706 -9.931,7.482c1.769,-4.217 5.578,-7.21 10.067,-7.89Zm-11.291,13.331c-0,-0.952 0.136,-2.04 0.272,-2.992c1.088,0.272 2.041,0.408 2.857,0.408c5.577,-0 8.162,-5.034 10.339,-9.251c0.272,-0.544 0.544,-1.224 0.952,-1.768c3.809,0.272 7.074,2.04 9.386,4.625c0.953,1.088 1.905,2.585 1.905,4.353c-0,1.633 -0.816,3.265 -2.585,4.761c-1.36,1.225 -3.945,1.225 -6.666,1.225c-3.128,-0 -6.529,-0 -8.978,1.904c-1.36,1.088 -2.993,3.265 -2.857,5.986c0,0.272 0,0.68 0.136,1.088c-2.857,-2.449 -4.761,-6.122 -4.761,-10.339Zm13.604,13.604c-1.225,-0 -2.449,-0.136 -3.537,-0.544c-1.769,-1.089 -2.585,-2.449 -2.721,-3.945c-0.136,-1.633 0.816,-2.993 1.768,-3.809c1.633,-1.361 4.49,-1.361 7.21,-1.361c3.129,0 6.258,0 8.571,-1.904c0.952,-0.816 1.632,-1.633 2.176,-2.449l0,0.136c0.136,7.754 -5.985,13.876 -13.467,13.876Z" style="fill:#fff;fill-rule:nonzero;"/></g><g><path d="M121.264,288.495l0,-67.669l7.142,-0l-0,67.669l-7.142,-0Zm-12.004,-41.179l-0,-6.433l31.099,0l0,6.433l-31.099,-0Z" style="fill:#034a71;fill-rule:nonzero;"/><path d="M169.889,289.508c-4.762,-0 -9.033,-1.081 -12.815,-3.242c-3.782,-2.161 -6.77,-5.124 -8.965,-8.889c-2.195,-3.765 -3.292,-8.011 -3.292,-12.739c-0,-4.693 1.072,-8.906 3.216,-12.637c2.144,-3.731 5.073,-6.686 8.788,-8.864c3.714,-2.178 7.867,-3.267 12.46,-3.267c4.356,0 8.205,0.988 11.548,2.963c3.343,1.976 5.968,4.702 7.876,8.18c1.908,3.478 2.862,7.463 2.862,11.954c-0,0.54 -0.034,1.165 -0.101,1.874c-0.068,0.709 -0.186,1.536 -0.355,2.482l-41.28,-0l0,-6.028l37.38,0l-2.532,2.178c0.067,-3.478 -0.524,-6.483 -1.773,-9.015c-1.25,-2.533 -3.039,-4.5 -5.369,-5.901c-2.33,-1.401 -5.133,-2.102 -8.408,-2.102c-3.444,-0 -6.458,0.751 -9.041,2.254c-2.583,1.502 -4.593,3.588 -6.028,6.255c-1.435,2.668 -2.152,5.808 -2.152,9.421c-0,3.681 0.751,6.905 2.254,9.674c1.502,2.769 3.621,4.922 6.356,6.458c2.735,1.537 5.909,2.305 9.523,2.305c2.87,-0 5.52,-0.523 7.952,-1.57c2.431,-1.047 4.491,-2.6 6.179,-4.66l4.609,4.66c-2.228,2.634 -4.989,4.668 -8.281,6.103c-3.292,1.435 -6.83,2.153 -10.611,2.153Z" style="fill:#034a71;fill-rule:nonzero;"/><path d="M239.533,288.495l0,-27.959c0,-4.154 -1.241,-7.53 -3.723,-10.13c-2.482,-2.6 -5.744,-3.9 -9.788,-3.9c-2.752,-0 -5.181,0.599 -7.287,1.798c-2.107,1.198 -3.759,2.844 -4.958,4.938c-1.198,2.094 -1.798,4.508 -1.798,7.243l-3.241,-1.823c-0,-3.613 0.835,-6.83 2.507,-9.649c1.671,-2.82 3.957,-5.048 6.857,-6.686c2.901,-1.638 6.185,-2.457 9.853,-2.457c3.667,0 6.91,0.887 9.729,2.659c2.82,1.773 5.023,4.137 6.61,7.092c1.587,2.954 2.381,6.187 2.381,9.699l-0,29.175l-7.142,-0Zm-34.696,-0l0,-47.612l7.142,0l0,47.612l-7.142,-0Z" style="fill:#034a71;fill-rule:nonzero;"/><path d="M295.958,288.495l-0,-27.959c-0,-4.154 -1.241,-7.53 -3.723,-10.13c-2.482,-2.6 -5.745,-3.9 -9.788,-3.9c-2.752,-0 -5.181,0.599 -7.288,1.798c-2.106,1.198 -3.758,2.844 -4.957,4.938c-1.199,2.094 -1.798,4.508 -1.798,7.243l-3.242,-1.823c0,-3.613 0.836,-6.83 2.507,-9.649c1.672,-2.82 3.958,-5.048 6.858,-6.686c2.9,-1.638 6.184,-2.457 9.852,-2.457c3.667,0 6.91,0.887 9.73,2.659c2.819,1.773 5.023,4.137 6.61,7.092c1.587,2.954 2.38,6.187 2.38,9.699l0,29.175l-7.141,-0Zm-34.696,-0l0,-47.612l7.142,0l-0,47.612l-7.142,-0Z" style="fill:#034a71;fill-rule:nonzero;"/><path d="M317.737,288.495l0,-47.612l7.142,0l0,47.612l-7.142,-0Zm3.546,-57.894c-1.385,0 -2.541,-0.489 -3.47,-1.469c-0.928,-0.979 -1.393,-2.161 -1.393,-3.545c0,-1.418 0.465,-2.6 1.393,-3.546c0.929,-0.945 2.085,-1.418 3.47,-1.418c1.452,0 2.642,0.473 3.571,1.418c0.928,0.946 1.393,2.128 1.393,3.546c-0,1.384 -0.465,2.566 -1.393,3.545c-0.929,0.98 -2.119,1.469 -3.571,1.469Z" style="fill:#034a71;fill-rule:nonzero;"/><path d="M353.8,289.508c-2.6,-0 -5.073,-0.355 -7.42,-1.064c-2.347,-0.709 -4.482,-1.705 -6.407,-2.988c-1.925,-1.283 -3.613,-2.803 -5.065,-4.559l4.609,-4.66c1.857,2.297 3.993,4.002 6.407,5.116c2.415,1.114 5.091,1.672 8.028,1.672c3.175,-0 5.656,-0.6 7.446,-1.799c1.79,-1.198 2.685,-2.878 2.685,-5.039c-0,-2.026 -0.634,-3.613 -1.9,-4.761c-1.266,-1.149 -2.904,-2.069 -4.913,-2.761c-2.009,-0.692 -4.128,-1.359 -6.357,-2.001c-2.228,-0.641 -4.347,-1.452 -6.356,-2.431c-2.009,-0.979 -3.647,-2.338 -4.913,-4.077c-1.267,-1.739 -1.9,-4.044 -1.9,-6.914c0,-2.701 0.667,-5.048 2.001,-7.04c1.334,-1.993 3.225,-3.546 5.673,-4.66c2.448,-1.115 5.36,-1.672 8.737,-1.672c3.613,0 6.863,0.642 9.75,1.925c2.887,1.283 5.226,3.174 7.015,5.673l-4.609,4.609c-1.384,-1.823 -3.14,-3.233 -5.267,-4.229c-2.128,-0.996 -4.525,-1.494 -7.193,-1.494c-3.005,-0 -5.301,0.59 -6.888,1.772c-1.587,1.182 -2.381,2.719 -2.381,4.61c0,1.857 0.633,3.309 1.9,4.355c1.266,1.047 2.903,1.891 4.913,2.533c2.009,0.642 4.128,1.283 6.356,1.925c2.229,0.641 4.348,1.485 6.357,2.532c2.009,1.047 3.647,2.465 4.913,4.255c1.266,1.79 1.899,4.187 1.899,7.192c0,4.289 -1.544,7.691 -4.634,10.206c-3.09,2.516 -7.252,3.774 -12.486,3.774Z" style="fill:#034a71;fill-rule:nonzero;"/><path d="M429.067,289.508c-4.423,-0 -8.39,-1.089 -11.9,-3.266c-3.511,-2.177 -6.288,-5.131 -8.332,-8.863c-2.045,-3.733 -3.067,-7.932 -3.067,-12.6c-0,-4.736 1.021,-8.974 3.064,-12.714c2.043,-3.74 4.826,-6.708 8.348,-8.902c3.522,-2.195 7.485,-3.293 11.887,-3.293c3.546,0 6.779,0.718 9.7,2.153c2.921,1.435 5.335,3.453 7.243,6.053c1.908,2.6 3.047,5.639 3.419,9.117l-0,14.942c-0.406,3.41 -1.537,6.424 -3.394,9.041c-1.857,2.617 -4.246,4.66 -7.167,6.128c-2.921,1.469 -6.188,2.204 -9.801,2.204Zm1.216,-6.737c3.309,0 6.211,-0.771 8.706,-2.313c2.495,-1.542 4.445,-3.67 5.85,-6.382c1.405,-2.712 2.108,-5.825 2.108,-9.336c-0,-3.592 -0.713,-6.743 -2.138,-9.451c-1.425,-2.709 -3.392,-4.833 -5.901,-6.373c-2.508,-1.539 -5.426,-2.309 -8.752,-2.309c-3.326,-0 -6.262,0.771 -8.809,2.314c-2.547,1.543 -4.556,3.671 -6.028,6.384c-1.471,2.714 -2.207,5.842 -2.207,9.384c0,3.512 0.733,6.634 2.2,9.368c1.466,2.734 3.496,4.869 6.089,6.407c2.594,1.538 5.555,2.307 8.882,2.307Zm23.4,5.724l-7.141,-0l-0,-12.764l1.468,-11.7l-1.468,-11.498l-0,-35.759l7.141,-0l0,71.721Z" style="fill:#034a71;fill-rule:nonzero;"/><path d="M492.431,289.508c-4.761,-0 -9.033,-1.081 -12.815,-3.242c-3.782,-2.161 -6.77,-5.124 -8.965,-8.889c-2.195,-3.765 -3.292,-8.011 -3.292,-12.739c-0,-4.693 1.072,-8.906 3.216,-12.637c2.144,-3.731 5.074,-6.686 8.788,-8.864c3.714,-2.178 7.868,-3.267 12.46,-3.267c4.356,0 8.205,0.988 11.548,2.963c3.343,1.976 5.969,4.702 7.877,8.18c1.907,3.478 2.861,7.463 2.861,11.954c0,0.54 -0.033,1.165 -0.101,1.874c-0.068,0.709 -0.186,1.536 -0.355,2.482l-41.28,-0l0,-6.028l37.38,0l-2.532,2.178c0.067,-3.478 -0.524,-6.483 -1.773,-9.015c-1.249,-2.533 -3.039,-4.5 -5.369,-5.901c-2.33,-1.401 -5.132,-2.102 -8.408,-2.102c-3.444,-0 -6.458,0.751 -9.041,2.254c-2.583,1.502 -4.592,3.588 -6.027,6.255c-1.436,2.668 -2.153,5.808 -2.153,9.421c-0,3.681 0.751,6.905 2.254,9.674c1.503,2.769 3.621,4.922 6.357,6.458c2.735,1.537 5.909,2.305 9.522,2.305c2.87,-0 5.521,-0.523 7.952,-1.57c2.431,-1.047 4.491,-2.6 6.179,-4.66l4.609,4.66c-2.228,2.634 -4.989,4.668 -8.281,6.103c-3.292,1.435 -6.829,2.153 -10.611,2.153Z" style="fill:#034a71;fill-rule:nonzero;"/><path d="M543.233,288.495l-22.033,-47.612l7.902,0l18.589,41.686l-4.508,-0l18.69,-41.686l7.648,0l-22.134,47.612l-4.154,-0Z" style="fill:#034a71;fill-rule:nonzero;"/><path d="M600.215,289.508c-4.761,-0 -9.033,-1.081 -12.814,-3.242c-3.782,-2.161 -6.771,-5.124 -8.966,-8.889c-2.194,-3.765 -3.292,-8.011 -3.292,-12.739c0,-4.693 1.072,-8.906 3.216,-12.637c2.145,-3.731 5.074,-6.686 8.788,-8.864c3.715,-2.178 7.868,-3.267 12.46,-3.267c4.356,0 8.206,0.988 11.549,2.963c3.343,1.976 5.968,4.702 7.876,8.18c1.908,3.478 2.861,7.463 2.861,11.954c0,0.54 -0.033,1.165 -0.101,1.874c-0.067,0.709 -0.186,1.536 -0.354,2.482l-41.28,-0l-0,-6.028l37.38,0l-2.533,2.178c0.068,-3.478 -0.523,-6.483 -1.773,-9.015c-1.249,-2.533 -3.039,-4.5 -5.369,-5.901c-2.33,-1.401 -5.132,-2.102 -8.408,-2.102c-3.444,-0 -6.458,0.751 -9.041,2.254c-2.583,1.502 -4.592,3.588 -6.027,6.255c-1.435,2.668 -2.153,5.808 -2.153,9.421c0,3.681 0.751,6.905 2.254,9.674c1.503,2.769 3.622,4.922 6.357,6.458c2.735,1.537 5.909,2.305 9.522,2.305c2.87,-0 5.521,-0.523 7.952,-1.57c2.431,-1.047 4.491,-2.6 6.18,-4.66l4.609,4.66c-2.229,2.634 -4.989,4.668 -8.282,6.103c-3.292,1.435 -6.829,2.153 -10.611,2.153Z" style="fill:#034a71;fill-rule:nonzero;"/><rect x="635.164" y="216.774" width="7.142" height="71.721" style="fill:#034a71;fill-rule:nonzero;"/><path d="M678.166,289.508c-4.626,-0 -8.805,-1.106 -12.536,-3.318c-3.731,-2.212 -6.694,-5.208 -8.889,-8.99c-2.195,-3.782 -3.292,-8.003 -3.292,-12.663c-0,-4.626 1.097,-8.796 3.292,-12.511c2.195,-3.714 5.158,-6.669 8.889,-8.863c3.731,-2.195 7.91,-3.293 12.536,-3.293c4.626,0 8.805,1.089 12.536,3.267c3.731,2.178 6.694,5.133 8.889,8.864c2.195,3.731 3.293,7.91 3.293,12.536c-0,4.694 -1.098,8.923 -3.293,12.688c-2.195,3.765 -5.158,6.753 -8.889,8.965c-3.731,2.212 -7.91,3.318 -12.536,3.318Zm0,-6.838c3.343,-0 6.323,-0.785 8.94,-2.355c2.617,-1.57 4.677,-3.732 6.179,-6.484c1.503,-2.752 2.254,-5.867 2.254,-9.345c0,-3.41 -0.759,-6.449 -2.279,-9.117c-1.519,-2.667 -3.579,-4.778 -6.179,-6.331c-2.6,-1.553 -5.572,-2.33 -8.915,-2.33c-3.309,0 -6.28,0.777 -8.914,2.33c-2.634,1.553 -4.702,3.664 -6.205,6.331c-1.503,2.668 -2.254,5.724 -2.254,9.168c0,3.478 0.751,6.585 2.254,9.32c1.503,2.735 3.571,4.888 6.205,6.458c2.634,1.57 5.605,2.355 8.914,2.355Z" style="fill:#034a71;fill-rule:nonzero;"/><path d="M741.226,289.508c-3.613,-0 -6.88,-0.735 -9.801,-2.204c-2.921,-1.468 -5.31,-3.511 -7.167,-6.128c-1.857,-2.617 -2.988,-5.631 -3.393,-9.041l-0,-14.942c0.405,-3.478 1.553,-6.517 3.444,-9.117c1.891,-2.6 4.305,-4.618 7.243,-6.053c2.938,-1.435 6.162,-2.153 9.674,-2.153c4.424,0 8.391,1.098 11.903,3.293c3.512,2.194 6.289,5.166 8.332,8.914c2.043,3.748 3.064,7.986 3.064,12.713c0,4.66 -1.013,8.856 -3.039,12.587c-2.026,3.731 -4.803,6.686 -8.332,8.864c-3.528,2.178 -7.504,3.267 -11.928,3.267Zm-24.616,19.044l-0,-67.669l7.142,0l-0,12.207l-1.469,11.548l1.469,11.65l-0,32.264l-7.142,0Zm23.4,-25.781c3.377,0 6.349,-0.768 8.915,-2.304c2.566,-1.537 4.584,-3.672 6.053,-6.408c1.469,-2.735 2.203,-5.858 2.203,-9.37c-0,-3.545 -0.734,-6.677 -2.203,-9.396c-1.469,-2.718 -3.478,-4.845 -6.028,-6.382c-2.549,-1.536 -5.478,-2.304 -8.788,-2.304c-3.309,-0 -6.23,0.768 -8.762,2.304c-2.533,1.537 -4.508,3.664 -5.926,6.382c-1.418,2.719 -2.128,5.867 -2.128,9.447c0,3.511 0.701,6.626 2.102,9.345c1.402,2.718 3.36,4.845 5.876,6.382c2.516,1.536 5.411,2.304 8.686,2.304Z" style="fill:#034a71;fill-rule:nonzero;"/><path d="M778.302,288.495l0,-47.612l7.142,0l-0,47.612l-7.142,-0Zm32.771,-0l0,-29.175c0,-3.917 -1.182,-7.032 -3.545,-9.345c-2.364,-2.313 -5.353,-3.469 -8.966,-3.469c-2.431,-0 -4.634,0.523 -6.61,1.57c-1.975,1.046 -3.553,2.515 -4.735,4.406c-1.182,1.891 -1.773,4.137 -1.773,6.737l-3.242,-1.266c0,-3.647 0.802,-6.821 2.406,-9.523c1.604,-2.701 3.782,-4.803 6.534,-6.306c2.752,-1.502 5.833,-2.254 9.244,-2.254c3.376,0 6.407,0.743 9.092,2.229c2.684,1.486 4.811,3.579 6.382,6.281c1.57,2.701 2.355,5.909 2.355,9.623l-0,30.492l-7.142,-0Zm32.771,-0l-0,-29.175c-0,-3.917 -1.182,-7.032 -3.546,-9.345c-2.363,-2.313 -5.352,-3.469 -8.965,-3.469c-2.397,-0 -4.592,0.523 -6.584,1.57c-1.993,1.046 -3.58,2.515 -4.761,4.406c-1.182,1.891 -1.773,4.137 -1.773,6.737l-4.204,-1.266c0.169,-3.681 1.114,-6.864 2.836,-9.548c1.722,-2.685 3.985,-4.778 6.787,-6.281c2.803,-1.502 5.893,-2.254 9.269,-2.254c3.411,0 6.475,0.743 9.193,2.229c2.719,1.486 4.88,3.588 6.484,6.306c1.604,2.718 2.406,5.934 2.406,9.649l-0,30.441l-7.142,-0Z" style="fill:#034a71;fill-rule:nonzero;"/><path d="M887.099,289.508c-4.761,-0 -9.032,-1.081 -12.814,-3.242c-3.782,-2.161 -6.77,-5.124 -8.965,-8.889c-2.195,-3.765 -3.293,-8.011 -3.293,-12.739c0,-4.693 1.073,-8.906 3.217,-12.637c2.144,-3.731 5.073,-6.686 8.788,-8.864c3.714,-2.178 7.867,-3.267 12.46,-3.267c4.356,0 8.205,0.988 11.548,2.963c3.343,1.976 5.968,4.702 7.876,8.18c1.908,3.478 2.862,7.463 2.862,11.954c-0,0.54 -0.034,1.165 -0.101,1.874c-0.068,0.709 -0.186,1.536 -0.355,2.482l-41.28,-0l-0,-6.028l37.38,0l-2.533,2.178c0.068,-3.478 -0.523,-6.483 -1.772,-9.015c-1.25,-2.533 -3.039,-4.5 -5.369,-5.901c-2.33,-1.401 -5.133,-2.102 -8.408,-2.102c-3.445,-0 -6.458,0.751 -9.041,2.254c-2.584,1.502 -4.593,3.588 -6.028,6.255c-1.435,2.668 -2.152,5.808 -2.152,9.421c-0,3.681 0.751,6.905 2.253,9.674c1.503,2.769 3.622,4.922 6.357,6.458c2.735,1.537 5.909,2.305 9.522,2.305c2.871,-0 5.521,-0.523 7.953,-1.57c2.431,-1.047 4.491,-2.6 6.179,-4.66l4.609,4.66c-2.229,2.634 -4.989,4.668 -8.281,6.103c-3.293,1.435 -6.83,2.153 -10.612,2.153Z" style="fill:#034a71;fill-rule:nonzero;"/><path d="M956.744,288.495l-0,-27.959c-0,-4.154 -1.241,-7.53 -3.723,-10.13c-2.482,-2.6 -5.745,-3.9 -9.788,-3.9c-2.752,-0 -5.181,0.599 -7.288,1.798c-2.106,1.198 -3.758,2.844 -4.957,4.938c-1.199,2.094 -1.798,4.508 -1.798,7.243l-3.242,-1.823c0,-3.613 0.836,-6.83 2.508,-9.649c1.671,-2.82 3.957,-5.048 6.857,-6.686c2.9,-1.638 6.185,-2.457 9.852,-2.457c3.667,0 6.911,0.887 9.73,2.659c2.82,1.773 5.023,4.137 6.61,7.092c1.587,2.954 2.381,6.187 2.381,9.699l-0,29.175l-7.142,-0Zm-34.696,-0l0,-47.612l7.142,0l-0,47.612l-7.142,-0Z" style="fill:#034a71;fill-rule:nonzero;"/><path d="M985.26,288.495l0,-67.669l7.142,-0l-0,67.669l-7.142,-0Zm-12.004,-41.179l-0,-6.433l31.099,0l0,6.433l-31.099,-0Z" style="fill:#034a71;fill-rule:nonzero;"/></g><defs><linearGradient id="_Linear1" x1="0" y1="0" x2="1" y2="0" gradientUnits="userSpaceOnUse" gradientTransform="matrix(-82.5919,49.4374,-49.4374,-82.5919,93.5193,181.313)"><stop offset="0" style="stop-color:#a3f04b;stop-opacity:1"/><stop offset="1" style="stop-color:#a3f04b;stop-opacity:0"/></linearGradient><linearGradient id="_Linear2" x1="0" y1="0" x2="1" y2="0" gradientUnits="userSpaceOnUse" gradientTransform="matrix(71.2886,-136.661,136.661,71.2886,1020.1,181.257)"><stop offset="0" style="stop-color:#a3f04b;stop-opacity:1"/><stop offset="1" style="stop-color:#a3f04b;stop-opacity:0"/></linearGradient><linearGradient id="_Linear3" x1="0" y1="0" x2="1" y2="0" gradientUnits="userSpaceOnUse" gradientTransform="matrix(-1.22198,-85.1698,85.1698,-1.22198,704.493,126.18)"><stop offset="0" style="stop-color:#177784;stop-opacity:1"/><stop offset="0.44" style="stop-color:#419b73;stop-opacity:1"/><stop offset="1" style="stop-color:#a3f04b;stop-opacity:1"/></linearGradient><linearGradient id="_Linear4" x1="0" y1="0" x2="1" y2="0" gradientUnits="userSpaceOnUse" gradientTransform="matrix(-1.22198,-85.1698,85.1698,-1.22198,704.493,126.18)"><stop offset="0" style="stop-color:#177784;stop-opacity:1"/><stop offset="0.44" style="stop-color:#419b73;stop-opacity:1"/><stop offset="1" style="stop-color:#a3f04b;stop-opacity:1"/></linearGradient></defs></svg>